<svg xmlns="http://www.w3.org/2000/svg" width="600" height="600" viewBox="0 0 378 387">
  <defs>
    <linearGradient id="threeStopGradient" x1="100%" y1="0%" x2="0%" y2="100%">
      <stop offset="0%" stop-color="#595957" />
      <stop offset="50%" stop-color="#3A3A3A" />
      <stop offset="100%" stop-color="#1F1F1F" />
    </linearGradient>

    <mask id="shapeMask">
      <g transform="translate(-106, 493) scale(0.100000, -0.100000)" fill="#FFFFFF" stroke="none">
        <path d="M1065 4928 c-3 -7 -4 -879 -3 -1938 l3 -1925 1890 0 1890 0 0 1935 0
        1935 -1888 3 c-1505 2 -1889 0 -1892 -10z m2109 -1033 c246 -44 396 -224 396
        -475 0 -105 -28 -189 -88 -269 -15 -20 -21 -36 -15 -38 26 -9 106 -73 136
        -109 51 -60 74 -103 91 -170 35 -134 13 -263 -63 -379 -25 -38 -48 -74 -49
        -78 -2 -4 30 -48 72 -97 42 -48 76 -91 76 -94 0 -3 -85 -6 -188 -6 l-188 0
        -98 141 c-53 78 -100 147 -103 155 -4 10 4 14 31 14 41 0 101 22 129 48 28 25
        57 86 63 135 14 97 -44 190 -137 220 -43 14 -101 17 -375 17 l-324 0 0 -215 0
        -215 245 0 245 0 0 -150 0 -150 -405 0 -405 0 0 865 0 865 438 0 c331 -1 456
        -4 516 -15z"/>
        <path d="M2540 3405 l0 -195 278 0 c276 0 278 0 328 25 132 66 137 269 9 342
        -39 22 -48 23 -327 23 l-288 0 0 -195z"/>
      </g>
    </mask>
  </defs>

  <rect width="100%" height="100%" fill="url(#threeStopGradient)" mask="url(#shapeMask)" />
</svg>
